<?xml version="1.0" standalone="no"?>
<!DOCTYPE svg PUBLIC "-//W3C//DTD SVG 20010904//EN"
 "http://www.w3.org/TR/2001/REC-SVG-20010904/DTD/svg10.dtd">
<svg version="1.0" xmlns="http://www.w3.org/2000/svg"
 width="204.000000pt" height="204.000000pt" viewBox="0 0 204.000000 204.000000"
 preserveAspectRatio="xMidYMid meet">
<metadata>
Created by potrace 1.11, written by Peter Selinger 2001-2013
</metadata>
<g transform="translate(0.000000,204.000000) scale(0.100000,-0.100000)"
fill="#000000" stroke="none">
<path d="M938 2025 c-1 -2 -22 -6 -45 -9 -22 -4 -70 -17 -106 -29 l-65 -22 40
-101 39 -102 50 19 c82 32 195 47 309 44 121 -4 138 -7 240 -41 151 -51 287
-141 385 -255 119 -139 147 -224 141 -424 -5 -162 -42 -289 -122 -423 l-31
-53 -20 48 c-11 26 -28 70 -38 96 -10 26 -21 49 -25 52 -3 2 -19 -26 -35 -63
-16 -37 -43 -98 -61 -137 -72 -155 -174 -390 -174 -400 0 -7 83 -10 255 -10
168 0 255 3 255 10 0 5 -18 53 -39 105 l-38 94 33 52 c129 202 169 460 108
699 -26 101 -132 356 -181 434 -82 131 -222 260 -359 329 -44 23 -154 61 -194
69 -14 2 -43 8 -64 13 -37 8 -250 12 -258 5z"/>
<path d="M134 1829 c-2 -3 14 -50 35 -104 l38 -98 -43 -70 c-96 -155 -136
-307 -130 -497 5 -147 21 -214 99 -410 68 -171 85 -203 148 -287 231 -304 614
-429 977 -316 28 9 52 21 52 27 0 5 -16 51 -35 101 l-36 92 -82 -25 c-113 -34
-316 -39 -427 -11 -177 45 -290 109 -420 239 -159 160 -191 238 -185 460 2 99
9 144 30 214 25 86 96 236 121 257 9 7 22 -15 51 -91 l39 -101 38 83 c21 46
70 150 108 232 111 237 138 297 138 301 0 2 -87 4 -192 5 -106 1 -222 3 -256
4 -35 1 -65 -1 -68 -5z"/>
</g>
</svg>
